<svg width="138" height="138" viewBox="0 0 138 138" fill="none" xmlns="http://www.w3.org/2000/svg">
<g clip-path="url(#clip0)">
<path d="M35.8521 41.001C34.465 41.001 33.4991 42.3785 33.9718 43.6826L45.9929 76.8443C46.2798 77.6357 47.0314 78.1627 47.8732 78.1627H71.0251C72.4122 78.1627 73.3781 76.7852 72.9054 75.4811L60.8843 42.3194C60.5974 41.528 59.8458 41.001 59.004 41.001H35.8521Z" fill="#F5F2F0"/>
<path d="M70.2377 96.7435C68.8475 96.7435 67.8814 95.3602 68.36 94.0549L77.1127 70.1836C77.4016 69.3958 78.1514 68.8721 78.9905 68.8721H102.137C103.527 68.8721 104.493 70.2554 104.014 71.5606L95.2617 95.432C94.9729 96.2197 94.223 96.7435 93.384 96.7435H70.2377Z" fill="#F5F2F0"/>
</g>
<defs>
<clipPath id="clip0">
<rect width="138" height="138" fill="white"/>
</clipPath>
</defs>
</svg>
