<svg version="1.0" xmlns="http://www.w3.org/2000/svg" width="1365.333" height="1365.333" viewBox="0 0 1024 1024"><path d="M0 512v512h1024V0H0v512zm550.5-253.6c45 5.7 75.7 15.1 102.8 31.5 9.7 5.9 25.3 18.8 32 26.5C710 345 722 381.7 722 428.9c0 80.2-36.8 132.4-110.3 156.6-36.4 12-70.6 15.4-152.4 15.5H417v168H307V255.9l115.3.4c99.5.4 117 .6 128.2 2.1z"/><path d="M417 428.5V504h48.8c52.5 0 65.5-.7 83-4.6 20.1-4.5 33.2-11.3 44.1-23 10.3-10.9 15.6-24.6 16.8-42.5 2.3-36.6-15-62.4-49.5-73.7-18.6-6.2-31.6-7.2-91.4-7.2H417v75.5z"/></svg>
