<svg xmlns="http://www.w3.org/2000/svg" width="96" height="20" viewBox="0 0 96 20" fill="none">
<g clip-path="url(#clip0)">
<path d="M1.355 -2.60796e-07C1.242 -3.82038e-05 1.13067 0.0271619 1.03042 0.0792953C0.930166 0.131429 0.84396 0.206959 0.779102 0.299487C0.714245 0.392015 0.672646 0.498813 0.657832 0.610833C0.643018 0.722853 0.655424 0.836793 0.694 0.943L4.921 12.603C5.022 12.881 5.287 13.066 5.583 13.066H13.725C13.838 13.066 13.9493 13.0388 14.0496 12.9867C14.1498 12.9346 14.236 12.859 14.3009 12.7665C14.3658 12.674 14.4074 12.5672 14.4222 12.4552C14.437 12.3431 14.4246 12.2292 14.386 12.123L10.159 0.463C10.1096 0.326964 10.0194 0.209493 9.90074 0.126627C9.78208 0.0437615 9.64073 -0.000460345 9.496 -2.60796e-07H1.355ZM13.448 19.599C13.3347 19.5991 13.2231 19.5717 13.1227 19.5194C13.0222 19.467 12.9359 19.3911 12.8711 19.2982C12.8063 19.2053 12.7649 19.0982 12.7504 18.9858C12.736 18.8735 12.7488 18.7593 12.788 18.653L15.866 10.26C15.9156 10.1248 16.0054 10.0081 16.1235 9.92567C16.2415 9.84322 16.382 9.79901 16.526 9.799H24.666C25.156 9.799 25.495 10.285 25.326 10.744L22.248 19.138C22.1983 19.273 22.1083 19.3895 21.9903 19.4717C21.8723 19.554 21.7319 19.5981 21.588 19.598H13.448V19.599ZM48.758 19.69V17.89H39.896V-2.60796e-07H37.983V19.69H48.758ZM52.888 19.69V6.865H51.058V19.69H52.888ZM61.176 18.2C59.714 18.2 58.926 17.609 58.926 15.162V8.439H62.471V6.864H58.926V2.616H57.125V6.864H54.649V8.439H57.125V15.499C57.125 17.384 57.603 18.649 58.419 19.184C59.207 19.747 59.826 19.859 60.811 19.859C61.711 19.859 62.414 19.775 62.893 19.634V18.003C62.414 18.143 61.823 18.2 61.176 18.2ZM71.55 6.526C69.074 6.526 67.358 7.82 66.767 9.817V6.864H66.739V-2.60796e-07H64.939V19.69H66.767V13.165C66.767 10.099 68.23 8.129 70.959 8.129C73.407 8.129 74.617 9.649 74.617 12.686V19.691H76.417V11.955C76.417 8.439 74.786 6.526 71.55 6.526ZM81.493 19.69V6.865H79.664V19.69H81.494H81.493ZM90.12 20C93.468 20 95.69 18.228 96 15.415H94.171C93.834 17.328 92.371 18.34 90.091 18.34C87.306 18.34 85.561 16.4 85.561 13.277C85.561 10.155 87.306 8.214 90.091 8.214C92.371 8.214 93.834 9.283 94.171 11.224H96C95.69 8.383 93.468 6.582 90.12 6.582C88.178 6.582 86.631 7.202 85.477 8.411C84.324 9.648 83.733 11.28 83.733 13.277C83.733 15.274 84.323 16.906 85.477 18.144C86.631 19.38 88.178 20 90.12 20Z" fill="black"/>
<path d="M52.05 4.221C52.8271 4.221 53.457 3.59106 53.457 2.814C53.457 2.03693 52.8271 1.407 52.05 1.407C51.2729 1.407 50.643 2.03693 50.643 2.814C50.643 3.59106 51.2729 4.221 52.05 4.221Z" fill="black"/>
<path d="M80.537 4.221C81.3141 4.221 81.944 3.59106 81.944 2.814C81.944 2.03693 81.3141 1.407 80.537 1.407C79.7599 1.407 79.13 2.03693 79.13 2.814C79.13 3.59106 79.7599 4.221 80.537 4.221Z" fill="black"/>
</g>
<defs>
<clipPath id="clip0">
<rect width="96" height="20" fill="white"/>
</clipPath>
</defs>
</svg>